<svg width="426" height="78" viewBox="0 0 426 78" fill="none" xmlns="http://www.w3.org/2000/svg">
<path d="M167.04 21.8266C167.04 21.1589 166.969 20.499 166.824 19.8469C166.817 19.7728 166.817 19.6981 166.803 19.6251C166.367 17.3258 165.469 15.222 164.119 13.3125C163.361 12.242 162.501 11.2626 161.485 10.4274C161.418 10.3634 161.355 10.2955 161.284 10.237C158.472 7.91867 155.249 6.6657 151.604 6.51462C150.586 6.4725 149.57 6.51743 148.565 6.71175C148.482 6.71849 148.397 6.71849 148.315 6.73366C146.169 7.13858 144.154 7.88105 142.333 9.09976C138.432 11.709 136.019 15.3197 135.227 19.948C134.693 23.0667 135.103 26.0921 136.425 28.9879C139.422 35.5543 146.616 39.8889 154.408 38.0917C160.656 36.6506 164.675 32.6811 166.53 26.5454C166.994 25.011 167.12 23.4267 167.04 21.8266ZM165.359 26.2084C163.662 31.6741 160.144 35.4077 154.556 36.768C148.329 38.2832 143.178 36.2496 139.234 31.2377C137.19 28.6408 136.157 25.6406 136.218 22.3225C136.294 18.1974 137.904 14.7132 140.857 11.8624C142.858 9.93096 145.237 8.65945 147.962 8.05852C147.998 8.05065 148.03 8.03156 148.064 8.01752C148.08 8.03212 148.096 8.04335 148.113 8.05178C148.128 8.03268 148.145 8.0164 148.162 8.00404C148.833 7.91306 149.5 7.79624 150.178 7.75974C154.03 7.55531 157.431 8.71224 160.416 11.1396C161.378 11.9219 162.233 12.816 162.952 13.8134C164.433 15.8712 165.449 18.1368 165.76 20.6849C165.873 21.6014 165.887 22.5186 165.86 23.4385H165.859C165.859 23.4385 165.854 23.4413 165.851 23.4435C165.854 23.4475 165.857 23.4514 165.86 23.4548C165.758 24.3848 165.638 25.3126 165.359 26.2084Z" fill="white"/>
<path d="M163.488 22.3248C159.404 18.2733 155.318 14.224 151.239 10.1685C151.081 10.0124 151.004 9.98544 150.83 10.1595C147.846 13.1412 144.854 16.115 141.864 19.0904C140.784 20.1648 139.702 21.2381 138.621 22.3119C138.492 22.3933 138.387 22.4781 138.575 22.6084C138.74 22.7662 138.906 22.9235 139.072 23.0813C139.147 23.1633 139.219 23.2487 139.298 23.3273C143.129 27.1384 146.963 30.9479 150.789 34.7652C150.978 34.9534 151.069 34.991 151.281 34.7787C153.472 32.5805 155.679 30.397 157.879 28.2066C158.786 27.3036 159.685 26.3937 160.589 25.4867C161.576 24.5179 162.562 23.5474 163.552 22.5826C163.698 22.4405 163.556 22.3927 163.488 22.3248ZM151.644 32.4823V29.9022C151.642 28.9761 151.642 28.0494 151.641 27.1233V27.1025C151.641 26.6234 151.641 26.1449 151.64 25.6664V25.6462C151.639 25.1144 151.639 24.5825 151.637 24.0507V24.045C151.637 23.8311 151.637 23.6176 151.636 23.4037V23.3806C151.636 23.2397 151.642 23.1549 151.846 23.1554C153.842 23.1616 155.837 23.1627 157.832 23.1633H157.849C158.84 23.1633 159.831 23.1633 160.823 23.1639C160.858 23.1639 160.892 23.17 160.99 23.1785C157.889 26.3089 154.799 29.3799 151.644 32.4823ZM151.646 12.5582C151.771 12.5958 151.836 12.6874 151.911 12.761C152.934 13.7629 153.955 14.7671 154.977 15.7696C155.044 15.8347 155.116 15.8937 155.185 15.9555C155.218 15.988 155.251 16.02 155.284 16.0521C155.404 16.2026 155.538 16.339 155.692 16.4542C155.711 16.5036 155.745 16.5379 155.795 16.5553C155.82 16.612 155.86 16.653 155.918 16.6766C156.376 17.1416 156.83 17.6106 157.292 18.0711C158.292 19.064 159.295 20.053 160.296 21.0432C160.318 21.0993 160.357 21.1392 160.413 21.1611C160.432 21.2139 160.467 21.2499 160.52 21.2684C160.542 21.3251 160.581 21.3644 160.637 21.3863C160.656 21.4386 160.692 21.4739 160.744 21.493C160.806 21.5711 160.868 21.6486 160.928 21.725C160.869 21.7997 160.798 21.7677 160.738 21.7677C157.81 21.7682 154.88 21.7643 151.951 21.7705C151.72 21.771 151.636 21.7385 151.637 21.4734C151.641 19.9896 151.642 18.5052 151.641 17.0214V17.0057C151.645 16.8018 151.649 16.6002 151.659 16.3963C151.668 16.2059 151.654 16.0133 151.64 15.8201V15.8049C151.639 14.7744 151.637 13.7444 151.637 12.7138C151.637 12.6689 151.642 12.6234 151.646 12.5582ZM150.306 12.6621C150.341 12.7267 150.353 12.8008 150.35 12.8896C150.348 12.9328 150.345 12.9912 150.359 13.0362V13.6601C150.317 13.7286 150.349 13.8269 150.349 13.9011C150.343 16.4463 150.344 18.9916 150.344 21.5368C150.344 21.5784 150.346 21.6194 150.351 21.6587C150.334 21.7306 150.283 21.7733 150.138 21.7727C147.211 21.7637 144.284 21.7665 141.356 21.7665H141.143C144.2 18.6962 147.214 15.6853 150.306 12.6621ZM150.36 32.2801C150.36 32.3048 150.352 32.3289 150.339 32.4036C147.225 29.3546 144.177 26.2915 141.09 23.161H142.717C145.177 23.161 147.637 23.1622 150.097 23.1594C150.263 23.1594 150.367 23.1526 150.366 23.3834C150.357 26.3488 150.361 29.3142 150.36 32.2801Z" fill="white"/>
<path d="M146.58 32.0403C145.972 32.0425 145.364 32.0464 144.756 32.033C142.904 31.9908 141.574 30.6469 141.551 28.7975C141.544 28.1898 141.549 27.5821 141.547 26.9739C141.547 26.8829 141.565 26.7863 141.487 26.7105C141.129 26.3612 140.772 26.0113 140.373 25.6204C140.422 26.8037 140.345 27.9258 140.42 29.0474C140.577 31.3731 142.326 33.0939 144.654 33.1663C145.71 33.1989 146.767 33.1759 147.824 33.177C147.866 33.177 147.919 33.1927 147.946 33.1242C147.61 32.8069 147.269 32.4896 146.934 32.1655C146.832 32.0655 146.718 32.0397 146.58 32.0403Z" fill="white"/>
<path d="M155.515 12.9643C156.105 12.9575 156.694 12.9547 157.283 12.9665C158.967 12.9991 160.361 14.2616 160.544 15.9369C160.617 16.6069 160.558 17.2831 160.568 17.956C160.569 18.0481 160.537 18.1497 160.6 18.2289C160.933 18.6389 161.32 18.9938 161.719 19.3521C161.704 18.116 161.83 16.8911 161.646 15.6763C161.347 13.7118 159.821 12.1454 157.943 11.8978C156.69 11.7321 155.427 11.873 154.168 11.8202C154.491 12.1623 154.798 12.4779 155.093 12.8031C155.212 12.9339 155.346 12.9665 155.515 12.9643Z" fill="white"/>
<path d="M141.4 18.3261C141.513 18.2098 141.548 18.0834 141.546 17.9239C141.536 17.391 141.536 16.858 141.539 16.325C141.555 14.4133 142.949 13.0013 144.863 12.966C145.442 12.9558 146.022 12.9676 146.601 12.9671C146.684 12.9671 146.8 12.9873 146.846 12.9429C147.211 12.5807 147.563 12.2061 147.911 11.8422C146.809 11.8422 145.695 11.795 144.586 11.8523C142.391 11.9663 140.658 13.6579 140.43 15.8459C140.31 17.0023 140.409 18.1626 140.425 19.3555C140.75 19.0118 141.071 18.6653 141.4 18.3261Z" fill="white"/>
<path d="M161.712 27.5232C161.721 26.9031 161.714 26.2831 161.714 25.5929C161.358 25.9596 161.023 26.25 160.742 26.5948C160.58 26.6925 160.541 26.8397 160.541 27.0228C160.54 27.7804 160.613 28.5436 160.51 29.2945C160.298 30.8463 159.037 31.965 157.455 32.0302C156.792 32.0577 156.127 32.0358 155.463 32.0369C155.362 32.0375 155.26 32.0195 155.175 32.1077C154.835 32.4598 154.491 32.808 154.116 33.1905C155.387 33.159 156.619 33.2388 157.85 33.1365C158.016 33.1231 158.183 33.0882 158.347 33.0512C160.182 32.6328 161.634 30.9153 161.656 29.1389C161.667 29.1131 161.678 29.0884 161.678 29.0592V29.012C161.754 28.5178 161.704 28.0191 161.712 27.5232Z" fill="white"/>
<path d="M281.876 30.3537V13.9634H285.621V16.6951H285.792C286.09 15.749 286.603 15.0198 287.328 14.5076C288.061 13.9883 288.897 13.7287 289.836 13.7287C290.049 13.7287 290.288 13.7394 290.551 13.7607C290.821 13.7749 291.045 13.7998 291.223 13.8354V17.3887C291.059 17.3318 290.8 17.282 290.444 17.2394C290.096 17.1896 289.758 17.1647 289.43 17.1647C288.726 17.1647 288.093 17.3176 287.531 17.6235C286.976 17.9223 286.539 18.3384 286.219 18.872C285.898 19.4055 285.738 20.0209 285.738 20.718V30.3537H281.876Z" fill="white"/>
<path d="M271.92 30.6738C270.277 30.6738 268.858 30.3323 267.663 29.6494C266.475 28.9594 265.561 27.9848 264.92 26.7256C264.28 25.4594 263.96 23.969 263.96 22.2546C263.96 20.5686 264.28 19.0889 264.92 17.8156C265.568 16.5351 266.471 15.5392 267.631 14.8278C268.79 14.1093 270.153 13.75 271.718 13.75C272.728 13.75 273.681 13.9136 274.577 14.2409C275.481 14.561 276.278 15.059 276.968 15.7348C277.665 16.4106 278.213 17.2714 278.611 18.3171C279.009 19.3557 279.209 20.5935 279.209 22.0305V23.215H265.774V20.6113H275.506C275.499 19.8715 275.339 19.2134 275.026 18.6372C274.713 18.0539 274.275 17.595 273.713 17.2607C273.158 16.9263 272.511 16.7592 271.771 16.7592C270.981 16.7592 270.288 16.9512 269.69 17.3354C269.093 17.7124 268.627 18.2104 268.292 18.8293C267.965 19.4411 267.798 20.1133 267.791 20.8461V23.1189C267.791 24.0722 267.965 24.8903 268.314 25.5732C268.662 26.249 269.15 26.7683 269.776 27.1311C270.402 27.4868 271.134 27.6647 271.974 27.6647C272.536 27.6647 273.044 27.5864 273.5 27.4299C273.955 27.2663 274.35 27.028 274.684 26.715C275.019 26.402 275.271 26.0143 275.442 25.5519L279.049 25.9573C278.821 26.9106 278.387 27.7429 277.747 28.4543C277.114 29.1586 276.303 29.7063 275.314 30.0976C274.325 30.4817 273.194 30.6738 271.92 30.6738Z" fill="white"/>
<path d="M258.93 30.5884C258.282 30.5884 257.727 30.3608 257.265 29.9055C256.803 29.4502 256.575 28.8954 256.582 28.2409C256.575 27.6006 256.803 27.0529 257.265 26.5976C257.727 26.1423 258.282 25.9147 258.93 25.9147C259.556 25.9147 260.1 26.1423 260.562 26.5976C261.032 27.0529 261.27 27.6006 261.277 28.2409C261.27 28.6748 261.156 29.0696 260.936 29.4253C260.722 29.781 260.438 30.0656 260.082 30.279C259.733 30.4853 259.349 30.5884 258.93 30.5884Z" fill="white"/>
<path d="M242.703 20.75V30.3537H238.84V13.9634H242.532V16.7485H242.724C243.101 15.8308 243.702 15.1017 244.528 14.561C245.36 14.0204 246.388 13.75 247.611 13.75C248.742 13.75 249.728 13.9919 250.567 14.4756C251.414 14.9594 252.068 15.6601 252.531 16.5778C253 17.4955 253.231 18.6088 253.224 19.9177V30.3537H249.361V20.5153C249.361 19.4197 249.077 18.5625 248.508 17.9436C247.946 17.3247 247.167 17.0153 246.171 17.0153C245.495 17.0153 244.894 17.1647 244.367 17.4634C243.848 17.7551 243.439 18.1784 243.14 18.7333C242.849 19.2881 242.703 19.9604 242.703 20.75Z" fill="white"/>
<path d="M224.993 20.75V30.3537H221.13V13.9634H224.822V16.7485H225.014C225.391 15.8308 225.992 15.1017 226.818 14.561C227.65 14.0204 228.678 13.75 229.901 13.75C231.032 13.75 232.018 13.9919 232.857 14.4756C233.704 14.9594 234.358 15.6601 234.821 16.5778C235.29 17.4955 235.521 18.6088 235.514 19.9177V30.3537H231.651V20.5153C231.651 19.4197 231.367 18.5625 230.798 17.9436C230.236 17.3247 229.457 17.0153 228.461 17.0153C227.785 17.0153 227.184 17.1647 226.657 17.4634C226.138 17.7551 225.729 18.1784 225.43 18.7333C225.139 19.2881 224.993 19.9604 224.993 20.75Z" fill="white"/>
<path d="M209.193 30.6845C208.154 30.6845 207.219 30.4995 206.386 30.1296C205.561 29.7526 204.907 29.1977 204.423 28.465C203.946 27.7322 203.708 26.8288 203.708 25.7546C203.708 24.8298 203.879 24.0651 204.22 23.4604C204.562 22.8557 205.028 22.372 205.618 22.0092C206.209 21.6464 206.874 21.3725 207.614 21.1875C208.361 20.9955 209.132 20.8567 209.929 20.7714C210.89 20.6718 211.669 20.5829 212.266 20.5046C212.864 20.4192 213.298 20.2912 213.568 20.1205C213.845 19.9426 213.984 19.6687 213.984 19.2988V19.2348C213.984 18.4309 213.746 17.8085 213.269 17.3674C212.792 16.9263 212.106 16.7058 211.21 16.7058C210.264 16.7058 209.513 16.9121 208.958 17.3247C208.41 17.7373 208.04 18.2246 207.848 18.7866L204.242 18.2744C204.526 17.2785 204.996 16.4462 205.65 15.7775C206.305 15.1017 207.105 14.5966 208.051 14.2622C208.997 13.9208 210.043 13.75 211.188 13.75C211.978 13.75 212.764 13.8425 213.547 14.0275C214.329 14.2124 215.044 14.5183 215.691 14.9451C216.339 15.3649 216.858 15.9375 217.249 16.6631C217.648 17.3887 217.847 18.2958 217.847 19.3842V30.3537H214.133V28.1022H214.005C213.771 28.5574 213.44 28.9843 213.013 29.3826C212.593 29.7739 212.063 30.0905 211.423 30.3323C210.79 30.5671 210.047 30.6845 209.193 30.6845ZM210.196 27.8461C210.971 27.8461 211.644 27.6931 212.213 27.3872C212.782 27.0742 213.219 26.6616 213.525 26.1494C213.838 25.6372 213.995 25.0788 213.995 24.4741V22.5427C213.874 22.6423 213.667 22.7348 213.376 22.8201C213.091 22.9055 212.771 22.9802 212.415 23.0442C212.06 23.1083 211.708 23.1652 211.359 23.215C211.01 23.2648 210.708 23.3074 210.452 23.343C209.876 23.4213 209.36 23.5493 208.905 23.7272C208.45 23.905 208.09 24.154 207.827 24.4741C207.564 24.7871 207.432 25.1926 207.432 25.6906C207.432 26.402 207.692 26.9391 208.211 27.3019C208.73 27.6647 209.392 27.8461 210.196 27.8461Z" fill="white"/>
<path d="M201.105 8.50003V30.3537H197.242V8.50003H201.105Z" fill="white"/>
<path d="M179.063 36.5V13.9634H182.862V16.6738H183.086C183.285 16.2754 183.566 15.8522 183.929 15.404C184.292 14.9487 184.782 14.561 185.401 14.2409C186.02 13.9136 186.81 13.75 187.77 13.75C189.036 13.75 190.178 14.0737 191.196 14.7211C192.22 15.3613 193.031 16.311 193.628 17.5701C194.233 18.8222 194.535 20.3588 194.535 22.1799C194.535 23.9797 194.24 25.5092 193.65 26.7683C193.059 28.0275 192.255 28.9878 191.238 29.6494C190.221 30.311 189.069 30.6418 187.781 30.6418C186.842 30.6418 186.063 30.4853 185.444 30.1723C184.825 29.8593 184.327 29.4822 183.95 29.0412C183.58 28.593 183.292 28.1697 183.086 27.7714H182.926V36.5H179.063ZM182.851 22.1586C182.851 23.2185 183 24.1469 183.299 24.9436C183.605 25.7404 184.043 26.3628 184.612 26.811C185.188 27.2521 185.885 27.4726 186.703 27.4726C187.557 27.4726 188.272 27.2449 188.848 26.7897C189.424 26.3273 189.858 25.6977 190.15 24.9009C190.449 24.0971 190.598 23.183 190.598 22.1586C190.598 21.1413 190.452 20.2378 190.16 19.4482C189.869 18.6586 189.435 18.0397 188.859 17.5915C188.282 17.1433 187.564 16.9192 186.703 16.9192C185.878 16.9192 185.177 17.1362 184.601 17.5701C184.025 18.0041 183.587 18.6123 183.289 19.3948C182.997 20.1774 182.851 21.0986 182.851 22.1586Z" fill="white"/>
<path d="M12.6193 62.5H11.0341C10.9403 62.044 10.7763 61.6435 10.5419 61.2983C10.3118 60.9531 10.0305 60.6634 9.69815 60.429C9.37003 60.1903 9.00568 60.0114 8.60511 59.892C8.20455 59.7727 7.78693 59.7131 7.35227 59.7131C6.55966 59.7131 5.84162 59.9134 5.19815 60.3139C4.55895 60.7145 4.04972 61.3047 3.67045 62.0845C3.29545 62.8643 3.10795 63.821 3.10795 64.9545C3.10795 66.0881 3.29545 67.0447 3.67045 67.8246C4.04972 68.6044 4.55895 69.1946 5.19815 69.5952C5.84162 69.9957 6.55966 70.196 7.35227 70.196C7.78693 70.196 8.20455 70.1364 8.60511 70.017C9.00568 69.8977 9.37003 69.7209 9.69815 69.4865C10.0305 69.2479 10.3118 68.956 10.5419 68.6108C10.7763 68.2614 10.9403 67.8608 11.0341 67.4091H12.6193C12.5 68.0781 12.2827 68.6768 11.9673 69.2053C11.652 69.7337 11.2599 70.1832 10.7912 70.554C10.3224 70.9205 9.79617 71.1996 9.21236 71.3913C8.63281 71.5831 8.01278 71.679 7.35227 71.679C6.2358 71.679 5.2429 71.4062 4.37358 70.8608C3.50426 70.3153 2.82031 69.5398 2.32173 68.5341C1.82315 67.5284 1.57386 66.3352 1.57386 64.9545C1.57386 63.5739 1.82315 62.3807 2.32173 61.375C2.82031 60.3693 3.50426 59.5938 4.37358 59.0483C5.2429 58.5028 6.2358 58.2301 7.35227 58.2301C8.01278 58.2301 8.63281 58.326 9.21236 58.5178C9.79617 58.7095 10.3224 58.9908 10.7912 59.3615C11.2599 59.728 11.652 60.1754 11.9673 60.7038C12.2827 61.228 12.5 61.8267 12.6193 62.5ZM18.605 71.7045C17.7187 71.7045 16.941 71.4936 16.2719 71.0717C15.6072 70.6499 15.0873 70.0597 14.7123 69.3011C14.3415 68.5426 14.1562 67.6562 14.1562 66.642C14.1562 65.6193 14.3415 64.7266 14.7123 63.9638C15.0873 63.201 15.6072 62.6087 16.2719 62.1868C16.941 61.7649 17.7187 61.554 18.605 61.554C19.4914 61.554 20.267 61.7649 20.9317 62.1868C21.6008 62.6087 22.1206 63.201 22.4914 63.9638C22.8664 64.7266 23.0539 65.6193 23.0539 66.642C23.0539 67.6562 22.8664 68.5426 22.4914 69.3011C22.1206 70.0597 21.6008 70.6499 20.9317 71.0717C20.267 71.4936 19.4914 71.7045 18.605 71.7045ZM18.605 70.3494C19.2783 70.3494 19.8323 70.1768 20.267 69.8317C20.7016 69.4865 21.0233 69.0327 21.2322 68.4702C21.441 67.9077 21.5454 67.2983 21.5454 66.642C21.5454 65.9858 21.441 65.3743 21.2322 64.8075C21.0233 64.2408 20.7016 63.7827 20.267 63.4332C19.8323 63.0838 19.2783 62.9091 18.605 62.9091C17.9317 62.9091 17.3777 63.0838 16.9431 63.4332C16.5084 63.7827 16.1867 64.2408 15.9779 64.8075C15.7691 65.3743 15.6647 65.9858 15.6647 66.642C15.6647 67.2983 15.7691 67.9077 15.9779 68.4702C16.1867 69.0327 16.5084 69.4865 16.9431 69.8317C17.3777 70.1768 17.9317 70.3494 18.605 70.3494ZM26.5051 65.5938V71.5H24.9966V61.6818H26.454V63.2159H26.5818C26.812 62.7173 27.1614 62.3168 27.6301 62.0142C28.0989 61.7074 28.704 61.554 29.4455 61.554C30.1103 61.554 30.6919 61.6903 31.1905 61.9631C31.6891 62.2315 32.0769 62.6406 32.3539 63.1903C32.6309 63.7358 32.7693 64.4261 32.7693 65.2614V71.5H31.2608V65.3636C31.2608 64.5923 31.0605 63.9915 30.66 63.5611C30.2594 63.1264 29.7097 62.9091 29.0108 62.9091C28.5293 62.9091 28.0989 63.0135 27.7196 63.2223C27.3446 63.4311 27.0485 63.7358 26.8311 64.1364C26.6138 64.5369 26.5051 65.0227 26.5051 65.5938ZM42.8428 61.6818L39.2121 71.5H37.678L34.0473 61.6818H35.6837L38.3939 69.5057H38.4962L41.2064 61.6818H42.8428ZM44.4739 71.5V61.6818H45.9824V71.5H44.4739ZM45.2409 60.0455C44.9469 60.0455 44.6933 59.9453 44.4803 59.745C44.2715 59.5447 44.1671 59.304 44.1671 59.0227C44.1671 58.7415 44.2715 58.5007 44.4803 58.3004C44.6933 58.1001 44.9469 58 45.2409 58C45.535 58 45.7864 58.1001 45.9952 58.3004C46.2083 58.5007 46.3148 58.7415 46.3148 59.0227C46.3148 59.304 46.2083 59.5447 45.9952 59.745C45.7864 59.9453 45.535 60.0455 45.2409 60.0455ZM52.0928 71.7045C51.2746 71.7045 50.5523 71.4979 49.9259 71.0845C49.2994 70.6669 48.8094 70.0788 48.4557 69.3203C48.102 68.5575 47.9251 67.6562 47.9251 66.6165C47.9251 65.5852 48.102 64.6903 48.4557 63.9318C48.8094 63.1733 49.3016 62.5874 49.9322 62.174C50.5629 61.7607 51.2916 61.554 52.1183 61.554C52.7575 61.554 53.2625 61.6605 53.6332 61.8736C54.0082 62.0824 54.2938 62.321 54.4898 62.5895C54.6901 62.8537 54.8456 63.071 54.9564 63.2415H55.0842V58.4091H56.5928V71.5H55.1354V69.9915H54.9564C54.8456 70.1705 54.6879 70.3963 54.4834 70.669C54.2788 70.9375 53.9869 71.1783 53.6077 71.3913C53.2284 71.6001 52.7234 71.7045 52.0928 71.7045ZM52.2973 70.3494C52.9024 70.3494 53.4138 70.1918 53.8314 69.8764C54.249 69.5568 54.5665 69.1158 54.7838 68.5533C55.0011 67.9865 55.1098 67.3324 55.1098 66.5909C55.1098 65.858 55.0033 65.2166 54.7902 64.6669C54.5771 64.1129 54.2618 63.6825 53.8442 63.3757C53.4266 63.0646 52.9109 62.9091 52.2973 62.9091C51.6581 62.9091 51.1254 63.0732 50.6993 63.4013C50.2774 63.7251 49.9599 64.1662 49.7469 64.7244C49.5381 65.2784 49.4337 65.9006 49.4337 66.5909C49.4337 67.2898 49.5402 67.9247 49.7533 68.4957C49.9706 69.0625 50.2902 69.5142 50.7121 69.8509C51.1382 70.1832 51.6666 70.3494 52.2973 70.3494ZM63.3215 71.7045C62.3755 71.7045 61.5595 71.4957 60.8734 71.0781C60.1916 70.6562 59.6653 70.0682 59.2945 69.3139C58.9281 68.5554 58.7448 67.6733 58.7448 66.6676C58.7448 65.6619 58.9281 64.7756 59.2945 64.0085C59.6653 63.2372 60.1809 62.6364 60.8414 62.206C61.5062 61.7713 62.2818 61.554 63.1681 61.554C63.6795 61.554 64.1845 61.6392 64.683 61.8097C65.1816 61.9801 65.6355 62.2571 66.0445 62.6406C66.4536 63.0199 66.7796 63.5227 67.0225 64.1491C67.2654 64.7756 67.3869 65.5469 67.3869 66.4631V67.1023H59.8187V65.7983H65.8528C65.8528 65.2443 65.742 64.75 65.5204 64.3153C65.3031 63.8807 64.992 63.5376 64.5872 63.2862C64.1866 63.0348 63.7136 62.9091 63.1681 62.9091C62.5673 62.9091 62.0474 63.0582 61.6085 63.3565C61.1738 63.6506 60.8393 64.0341 60.6049 64.5071C60.3705 64.9801 60.2534 65.4872 60.2534 66.0284V66.8977C60.2534 67.6392 60.3812 68.2678 60.6369 68.7834C60.8968 69.2947 61.2569 69.6847 61.7171 69.9531C62.1774 70.2173 62.7122 70.3494 63.3215 70.3494C63.7178 70.3494 64.0758 70.294 64.3954 70.1832C64.7193 70.0682 64.9984 69.8977 65.2328 69.6719C65.4671 69.4418 65.6482 69.1562 65.7761 68.8153L67.2335 69.2244C67.0801 69.7188 66.8222 70.1534 66.46 70.5284C66.0978 70.8991 65.6504 71.1889 65.1177 71.3977C64.585 71.6023 63.9863 71.7045 63.3215 71.7045ZM80.9787 63.8807L79.6236 64.2642C79.5383 64.0384 79.4126 63.8189 79.2464 63.6058C79.0845 63.3885 78.8629 63.2095 78.5817 63.0689C78.3004 62.9283 77.9403 62.858 77.5014 62.858C76.9005 62.858 76.3998 62.9964 75.9993 63.2734C75.603 63.5462 75.4048 63.8935 75.4048 64.3153C75.4048 64.6903 75.5412 64.9865 75.8139 65.2038C76.0866 65.4212 76.5128 65.6023 77.0923 65.7472L78.5497 66.1051C79.4275 66.3182 80.0817 66.6442 80.512 67.0831C80.9424 67.5178 81.1576 68.0781 81.1576 68.7642C81.1576 69.3267 80.9957 69.8295 80.6718 70.2727C80.3522 70.7159 79.9048 71.0653 79.3295 71.321C78.7542 71.5767 78.0852 71.7045 77.3224 71.7045C76.321 71.7045 75.4922 71.4872 74.8359 71.0526C74.1797 70.6179 73.7642 69.983 73.5895 69.1477L75.0213 68.7898C75.1576 69.3182 75.4155 69.7145 75.7947 69.9787C76.1782 70.2429 76.679 70.375 77.2968 70.375C78 70.375 78.5582 70.2259 78.9716 69.9276C79.3892 69.625 79.598 69.2628 79.598 68.8409C79.598 68.5 79.4787 68.2145 79.24 67.9844C79.0014 67.75 78.6349 67.5753 78.1406 67.4602L76.5042 67.0767C75.6051 66.8636 74.9446 66.5334 74.5227 66.0859C74.1051 65.6342 73.8963 65.0696 73.8963 64.392C73.8963 63.8381 74.0518 63.348 74.3629 62.9219C74.6782 62.4957 75.1065 62.1612 75.6477 61.9183C76.1932 61.6754 76.8111 61.554 77.5014 61.554C78.473 61.554 79.2358 61.767 79.7897 62.1932C80.348 62.6193 80.7443 63.1818 80.9787 63.8807ZM87.1849 71.7045C86.2389 71.7045 85.4228 71.4957 84.7367 71.0781C84.0549 70.6562 83.5286 70.0682 83.1579 69.3139C82.7914 68.5554 82.6082 67.6733 82.6082 66.6676C82.6082 65.6619 82.7914 64.7756 83.1579 64.0085C83.5286 63.2372 84.0443 62.6364 84.7048 62.206C85.3696 61.7713 86.1451 61.554 87.0315 61.554C87.5429 61.554 88.0478 61.6392 88.5464 61.8097C89.045 61.9801 89.4988 62.2571 89.9079 62.6406C90.317 63.0199 90.643 63.5227 90.8859 64.1491C91.1288 64.7756 91.2502 65.5469 91.2502 66.4631V67.1023H83.6821V65.7983H89.7161C89.7161 65.2443 89.6054 64.75 89.3838 64.3153C89.1664 63.8807 88.8554 63.5376 88.4505 63.2862C88.05 63.0348 87.5769 62.9091 87.0315 62.9091C86.4306 62.9091 85.9107 63.0582 85.4718 63.3565C85.0372 63.6506 84.7027 64.0341 84.4683 64.5071C84.2339 64.9801 84.1167 65.4872 84.1167 66.0284V66.8977C84.1167 67.6392 84.2446 68.2678 84.5002 68.7834C84.7602 69.2947 85.1203 69.6847 85.5805 69.9531C86.0407 70.2173 86.5755 70.3494 87.1849 70.3494C87.5812 70.3494 87.9392 70.294 88.2588 70.1832C88.5826 70.0682 88.8617 69.8977 89.0961 69.6719C89.3305 69.4418 89.5116 69.1562 89.6394 68.8153L91.0968 69.2244C90.9434 69.7188 90.6856 70.1534 90.3234 70.5284C89.9612 70.8991 89.5137 71.1889 88.9811 71.3977C88.4484 71.6023 87.8497 71.7045 87.1849 71.7045ZM99.3725 67.4858V61.6818H100.881V71.5H99.3725V69.8381H99.2702C99.0401 70.3366 98.6821 70.7607 98.1963 71.1101C97.7105 71.4553 97.0969 71.6278 96.3554 71.6278C95.7418 71.6278 95.1963 71.4936 94.7191 71.2251C94.2418 70.9524 93.8668 70.5433 93.5941 69.9979C93.3213 69.4482 93.185 68.7557 93.185 67.9205V61.6818H94.6935V67.8182C94.6935 68.5341 94.8938 69.1051 95.2944 69.5312C95.6992 69.9574 96.2148 70.1705 96.8412 70.1705C97.2162 70.1705 97.5976 70.0746 97.9854 69.8828C98.3775 69.6911 98.7056 69.397 98.9698 69.0007C99.2382 68.6044 99.3725 68.0994 99.3725 67.4858ZM110.239 63.8807L108.883 64.2642C108.798 64.0384 108.672 63.8189 108.506 63.6058C108.344 63.3885 108.123 63.2095 107.841 63.0689C107.56 62.9283 107.2 62.858 106.761 62.858C106.16 62.858 105.66 62.9964 105.259 63.2734C104.863 63.5462 104.665 63.8935 104.665 64.3153C104.665 64.6903 104.801 64.9865 105.074 65.2038C105.346 65.4212 105.773 65.6023 106.352 65.7472L107.81 66.1051C108.687 66.3182 109.341 66.6442 109.772 67.0831C110.202 67.5178 110.417 68.0781 110.417 68.7642C110.417 69.3267 110.256 69.8295 109.932 70.2727C109.612 70.7159 109.165 71.0653 108.589 71.321C108.014 71.5767 107.345 71.7045 106.582 71.7045C105.581 71.7045 104.752 71.4872 104.096 71.0526C103.44 70.6179 103.024 69.983 102.849 69.1477L104.281 68.7898C104.417 69.3182 104.675 69.7145 105.055 69.9787C105.438 70.2429 105.939 70.375 106.557 70.375C107.26 70.375 107.818 70.2259 108.231 69.9276C108.649 69.625 108.858 69.2628 108.858 68.8409C108.858 68.5 108.739 68.2145 108.5 67.9844C108.261 67.75 107.895 67.5753 107.4 67.4602L105.764 67.0767C104.865 66.8636 104.204 66.5334 103.783 66.0859C103.365 65.6342 103.156 65.0696 103.156 64.392C103.156 63.8381 103.312 63.348 103.623 62.9219C103.938 62.4957 104.366 62.1612 104.908 61.9183C105.453 61.6754 106.071 61.554 106.761 61.554C107.733 61.554 108.496 61.767 109.05 62.1932C109.608 62.6193 110.004 63.1818 110.239 63.8807ZM119.92 71.7301C119.298 71.7301 118.733 71.6129 118.226 71.3786C117.719 71.1399 117.316 70.7969 117.018 70.3494C116.72 69.8977 116.571 69.3523 116.571 68.7131C116.571 68.1506 116.681 67.6946 116.903 67.3452C117.125 66.9915 117.421 66.7145 117.791 66.5142C118.162 66.3139 118.571 66.1648 119.019 66.0668C119.47 65.9645 119.924 65.8835 120.38 65.8239C120.977 65.7472 121.46 65.6896 121.831 65.6513C122.206 65.6087 122.479 65.5384 122.649 65.4403C122.824 65.3423 122.911 65.1719 122.911 64.929V64.8778C122.911 64.2472 122.739 63.7571 122.394 63.4077C122.053 63.0582 121.535 62.8835 120.84 62.8835C120.12 62.8835 119.556 63.0412 119.147 63.3565C118.737 63.6719 118.45 64.0085 118.284 64.3665L116.852 63.8551C117.107 63.2585 117.448 62.794 117.875 62.4616C118.305 62.125 118.774 61.8906 119.281 61.7585C119.792 61.6222 120.295 61.554 120.789 61.554C121.105 61.554 121.467 61.5923 121.876 61.669C122.289 61.7415 122.688 61.8928 123.071 62.1229C123.459 62.353 123.781 62.7003 124.036 63.1648C124.292 63.6293 124.42 64.2514 124.42 65.0312V71.5H122.911V70.1705H122.835C122.732 70.3835 122.562 70.6115 122.323 70.8544C122.085 71.0973 121.767 71.304 121.371 71.4744C120.975 71.6449 120.491 71.7301 119.92 71.7301ZM120.15 70.375C120.747 70.375 121.25 70.2578 121.659 70.0234C122.072 69.7891 122.383 69.4865 122.592 69.1158C122.805 68.745 122.911 68.3551 122.911 67.946V66.5653C122.848 66.642 122.707 66.7124 122.49 66.7763C122.276 66.8359 122.029 66.8892 121.748 66.9361C121.471 66.9787 121.201 67.017 120.936 67.0511C120.676 67.081 120.465 67.1065 120.303 67.1278C119.911 67.179 119.545 67.2621 119.204 67.3771C118.867 67.4879 118.595 67.6562 118.386 67.8821C118.181 68.1037 118.079 68.4062 118.079 68.7898C118.079 69.3139 118.273 69.7102 118.661 69.9787C119.053 70.2429 119.549 70.375 120.15 70.375ZM126.813 71.5V61.6818H128.271V63.2159H128.399C128.603 62.6918 128.933 62.2848 129.389 61.995C129.845 61.701 130.393 61.554 131.032 61.554C131.68 61.554 132.219 61.701 132.649 61.995C133.084 62.2848 133.423 62.6918 133.666 63.2159H133.768C134.019 62.7088 134.396 62.3061 134.899 62.0078C135.402 61.7053 136.005 61.554 136.708 61.554C137.586 61.554 138.304 61.8288 138.862 62.3786C139.421 62.924 139.7 63.7741 139.7 64.929V71.5H138.191V64.929C138.191 64.2045 137.993 63.6868 137.597 63.3757C137.2 63.0646 136.734 62.9091 136.197 62.9091C135.507 62.9091 134.972 63.1179 134.592 63.5355C134.213 63.9489 134.024 64.473 134.024 65.108V71.5H132.489V64.7756C132.489 64.2173 132.308 63.7678 131.946 63.4268C131.584 63.0817 131.117 62.9091 130.546 62.9091C130.154 62.9091 129.788 63.0135 129.447 63.2223C129.11 63.4311 128.837 63.7209 128.629 64.0916C128.424 64.4581 128.322 64.8821 128.322 65.3636V71.5H126.813ZM142.098 71.5V61.6818H143.606V71.5H142.098ZM142.865 60.0455C142.571 60.0455 142.317 59.9453 142.104 59.745C141.895 59.5447 141.791 59.304 141.791 59.0227C141.791 58.7415 141.895 58.5007 142.104 58.3004C142.317 58.1001 142.571 58 142.865 58C143.159 58 143.41 58.1001 143.619 58.3004C143.832 58.5007 143.939 58.7415 143.939 59.0227C143.939 59.304 143.832 59.5447 143.619 59.745C143.41 59.9453 143.159 60.0455 142.865 60.0455ZM149.972 75.3864C149.244 75.3864 148.617 75.2926 148.093 75.1051C147.569 74.9219 147.132 74.679 146.783 74.3764C146.438 74.0781 146.163 73.7585 145.958 73.4176L147.16 72.5739C147.296 72.7528 147.469 72.9574 147.678 73.1875C147.886 73.4219 148.172 73.6243 148.534 73.7947C148.901 73.9695 149.38 74.0568 149.972 74.0568C150.765 74.0568 151.419 73.8651 151.935 73.4815C152.45 73.098 152.708 72.4972 152.708 71.679V69.6847H152.58C152.47 69.8636 152.312 70.0852 152.107 70.3494C151.907 70.6094 151.617 70.8416 151.238 71.0462C150.863 71.2464 150.356 71.3466 149.717 71.3466C148.924 71.3466 148.212 71.1591 147.582 70.7841C146.955 70.4091 146.459 69.8636 146.092 69.1477C145.73 68.4318 145.549 67.5625 145.549 66.5398C145.549 65.5341 145.726 64.6584 146.08 63.9126C146.433 63.1626 146.926 62.5831 147.556 62.174C148.187 61.7607 148.916 61.554 149.742 61.554C150.382 61.554 150.889 61.6605 151.264 61.8736C151.643 62.0824 151.933 62.321 152.133 62.5895C152.337 62.8537 152.495 63.071 152.606 63.2415H152.759V61.6818H154.217V71.7812C154.217 72.625 154.025 73.3111 153.641 73.8395C153.262 74.3722 152.751 74.7621 152.107 75.0092C151.468 75.2607 150.757 75.3864 149.972 75.3864ZM149.921 69.9915C150.526 69.9915 151.038 69.853 151.455 69.576C151.873 69.299 152.19 68.9006 152.408 68.3807C152.625 67.8608 152.734 67.2386 152.734 66.5142C152.734 65.8068 152.627 65.1825 152.414 64.6413C152.201 64.1001 151.886 63.6761 151.468 63.3693C151.051 63.0625 150.535 62.9091 149.921 62.9091C149.282 62.9091 148.749 63.071 148.323 63.3949C147.901 63.7187 147.584 64.1534 147.371 64.6989C147.162 65.2443 147.058 65.8494 147.058 66.5142C147.058 67.196 147.164 67.799 147.377 68.3232C147.595 68.843 147.914 69.2521 148.336 69.5504C148.762 69.8445 149.291 69.9915 149.921 69.9915ZM160.607 71.7045C159.72 71.7045 158.943 71.4936 158.274 71.0717C157.609 70.6499 157.089 70.0597 156.714 69.3011C156.343 68.5426 156.158 67.6562 156.158 66.642C156.158 65.6193 156.343 64.7266 156.714 63.9638C157.089 63.201 157.609 62.6087 158.274 62.1868C158.943 61.7649 159.72 61.554 160.607 61.554C161.493 61.554 162.269 61.7649 162.933 62.1868C163.602 62.6087 164.122 63.201 164.493 63.9638C164.868 64.7266 165.056 65.6193 165.056 66.642C165.056 67.6562 164.868 68.5426 164.493 69.3011C164.122 70.0597 163.602 70.6499 162.933 71.0717C162.269 71.4936 161.493 71.7045 160.607 71.7045ZM160.607 70.3494C161.28 70.3494 161.834 70.1768 162.269 69.8317C162.703 69.4865 163.025 69.0327 163.234 68.4702C163.443 67.9077 163.547 67.2983 163.547 66.642C163.547 65.9858 163.443 65.3743 163.234 64.8075C163.025 64.2408 162.703 63.7827 162.269 63.4332C161.834 63.0838 161.28 62.9091 160.607 62.9091C159.933 62.9091 159.379 63.0838 158.945 63.4332C158.51 63.7827 158.188 64.2408 157.98 64.8075C157.771 65.3743 157.666 65.9858 157.666 66.642C157.666 67.2983 157.771 67.9077 157.98 68.4702C158.188 69.0327 158.51 69.4865 158.945 69.8317C159.379 70.1768 159.933 70.3494 160.607 70.3494ZM173.953 63.8807L172.598 64.2642C172.513 64.0384 172.387 63.8189 172.221 63.6058C172.059 63.3885 171.837 63.2095 171.556 63.0689C171.275 62.9283 170.915 62.858 170.476 62.858C169.875 62.858 169.374 62.9964 168.973 63.2734C168.577 63.5462 168.379 63.8935 168.379 64.3153C168.379 64.6903 168.515 64.9865 168.788 65.2038C169.061 65.4212 169.487 65.6023 170.067 65.7472L171.524 66.1051C172.402 66.3182 173.056 66.6442 173.486 67.0831C173.917 67.5178 174.132 68.0781 174.132 68.7642C174.132 69.3267 173.97 69.8295 173.646 70.2727C173.326 70.7159 172.879 71.0653 172.304 71.321C171.728 71.5767 171.059 71.7045 170.297 71.7045C169.295 71.7045 168.466 71.4872 167.81 71.0526C167.154 70.6179 166.738 69.983 166.564 69.1477L167.996 68.7898C168.132 69.3182 168.39 69.7145 168.769 69.9787C169.152 70.2429 169.653 70.375 170.271 70.375C170.974 70.375 171.532 70.2259 171.946 69.9276C172.363 69.625 172.572 69.2628 172.572 68.8409C172.572 68.5 172.453 68.2145 172.214 67.9844C171.976 67.75 171.609 67.5753 171.115 67.4602L169.478 67.0767C168.579 66.8636 167.919 66.5334 167.497 66.0859C167.079 65.6342 166.871 65.0696 166.871 64.392C166.871 63.8381 167.026 63.348 167.337 62.9219C167.652 62.4957 168.081 62.1612 168.622 61.9183C169.167 61.6754 169.785 61.554 170.476 61.554C171.447 61.554 172.21 61.767 172.764 62.1932C173.322 62.6193 173.719 63.1818 173.953 63.8807ZM184.862 71.7045C183.916 71.7045 183.1 71.4957 182.413 71.0781C181.732 70.6562 181.205 70.0682 180.835 69.3139C180.468 68.5554 180.285 67.6733 180.285 66.6676C180.285 65.6619 180.468 64.7756 180.835 64.0085C181.205 63.2372 181.721 62.6364 182.382 62.206C183.046 61.7713 183.822 61.554 184.708 61.554C185.22 61.554 185.725 61.6392 186.223 61.8097C186.722 61.9801 187.176 62.2571 187.585 62.6406C187.994 63.0199 188.32 63.5227 188.563 64.1491C188.806 64.7756 188.927 65.5469 188.927 66.4631V67.1023H181.359V65.7983H187.393C187.393 65.2443 187.282 64.75 187.06 64.3153C186.843 63.8807 186.532 63.5376 186.127 63.2862C185.727 63.0348 185.254 62.9091 184.708 62.9091C184.107 62.9091 183.587 63.0582 183.149 63.3565C182.714 63.6506 182.379 64.0341 182.145 64.5071C181.911 64.9801 181.793 65.4872 181.793 66.0284V66.8977C181.793 67.6392 181.921 68.2678 182.177 68.7834C182.437 69.2947 182.797 69.6847 183.257 69.9531C183.717 70.2173 184.252 70.3494 184.862 70.3494C185.258 70.3494 185.616 70.294 185.935 70.1832C186.259 70.0682 186.538 69.8977 186.773 69.6719C187.007 69.4418 187.188 69.1562 187.316 68.8153L188.774 69.2244C188.62 69.7188 188.362 70.1534 188 70.5284C187.638 70.8991 187.19 71.1889 186.658 71.3977C186.125 71.6023 185.526 71.7045 184.862 71.7045ZM195.564 75.1818V61.6818H197.022V63.2415H197.201C197.311 63.071 197.465 62.8537 197.661 62.5895C197.861 62.321 198.147 62.0824 198.517 61.8736C198.892 61.6605 199.399 61.554 200.039 61.554C200.865 61.554 201.594 61.7607 202.225 62.174C202.855 62.5874 203.348 63.1733 203.701 63.9318C204.055 64.6903 204.232 65.5852 204.232 66.6165C204.232 67.6562 204.055 68.5575 203.701 69.3203C203.348 70.0788 202.858 70.6669 202.231 71.0845C201.605 71.4979 200.882 71.7045 200.064 71.7045C199.434 71.7045 198.929 71.6001 198.549 71.3913C198.17 71.1783 197.878 70.9375 197.674 70.669C197.469 70.3963 197.311 70.1705 197.201 69.9915H197.073V75.1818H195.564ZM197.047 66.5909C197.047 67.3324 197.156 67.9865 197.373 68.5533C197.59 69.1158 197.908 69.5568 198.326 69.8764C198.743 70.1918 199.255 70.3494 199.86 70.3494C200.49 70.3494 201.017 70.1832 201.438 69.8509C201.865 69.5142 202.184 69.0625 202.397 68.4957C202.615 67.9247 202.723 67.2898 202.723 66.5909C202.723 65.9006 202.617 65.2784 202.404 64.7244C202.195 64.1662 201.877 63.7251 201.451 63.4013C201.029 63.0732 200.499 62.9091 199.86 62.9091C199.246 62.9091 198.73 63.0646 198.313 63.3757C197.895 63.6825 197.58 64.1129 197.367 64.6669C197.154 65.2166 197.047 65.858 197.047 66.5909ZM207.681 58.4091V71.5H206.173V58.4091H207.681ZM212.974 71.7301C212.351 71.7301 211.787 71.6129 211.28 71.3786C210.773 71.1399 210.37 70.7969 210.072 70.3494C209.773 69.8977 209.624 69.3523 209.624 68.7131C209.624 68.1506 209.735 67.6946 209.957 67.3452C210.178 66.9915 210.474 66.7145 210.845 66.5142C211.216 66.3139 211.625 66.1648 212.072 66.0668C212.524 65.9645 212.978 65.8835 213.434 65.8239C214.03 65.7472 214.514 65.6896 214.885 65.6513C215.26 65.6087 215.533 65.5384 215.703 65.4403C215.878 65.3423 215.965 65.1719 215.965 64.929V64.8778C215.965 64.2472 215.793 63.7571 215.447 63.4077C215.106 63.0582 214.589 62.8835 213.894 62.8835C213.174 62.8835 212.609 63.0412 212.2 63.3565C211.791 63.6719 211.503 64.0085 211.337 64.3665L209.905 63.8551C210.161 63.2585 210.502 62.794 210.928 62.4616C211.359 62.125 211.827 61.8906 212.334 61.7585C212.846 61.6222 213.349 61.554 213.843 61.554C214.158 61.554 214.521 61.5923 214.93 61.669C215.343 61.7415 215.741 61.8928 216.125 62.1229C216.513 62.353 216.834 62.7003 217.09 63.1648C217.346 63.6293 217.474 64.2514 217.474 65.0312V71.5H215.965V70.1705H215.888C215.786 70.3835 215.616 70.6115 215.377 70.8544C215.138 71.0973 214.821 71.304 214.425 71.4744C214.028 71.6449 213.545 71.7301 212.974 71.7301ZM213.204 70.375C213.8 70.375 214.303 70.2578 214.712 70.0234C215.126 69.7891 215.437 69.4865 215.646 69.1158C215.859 68.745 215.965 68.3551 215.965 67.946V66.5653C215.901 66.642 215.761 66.7124 215.543 66.7763C215.33 66.8359 215.083 66.8892 214.802 66.9361C214.525 66.9787 214.254 67.017 213.99 67.0511C213.73 67.081 213.519 67.1065 213.357 67.1278C212.965 67.179 212.599 67.2621 212.258 67.3771C211.921 67.4879 211.648 67.6562 211.44 67.8821C211.235 68.1037 211.133 68.4062 211.133 68.7898C211.133 69.3139 211.327 69.7102 211.714 69.9787C212.106 70.2429 212.603 70.375 213.204 70.375ZM221.376 65.5938V71.5H219.867V61.6818H221.324V63.2159H221.452C221.682 62.7173 222.032 62.3168 222.501 62.0142C222.969 61.7074 223.574 61.554 224.316 61.554C224.981 61.554 225.562 61.6903 226.061 61.9631C226.559 62.2315 226.947 62.6406 227.224 63.1903C227.501 63.7358 227.64 64.4261 227.64 65.2614V71.5H226.131V65.3636C226.131 64.5923 225.931 63.9915 225.53 63.5611C225.13 63.1264 224.58 62.9091 223.881 62.9091C223.4 62.9091 222.969 63.0135 222.59 63.2223C222.215 63.4311 221.919 63.7358 221.702 64.1364C221.484 64.5369 221.376 65.0227 221.376 65.5938ZM234.153 71.7045C233.207 71.7045 232.391 71.4957 231.705 71.0781C231.023 70.6562 230.497 70.0682 230.126 69.3139C229.759 68.5554 229.576 67.6733 229.576 66.6676C229.576 65.6619 229.759 64.7756 230.126 64.0085C230.497 63.2372 231.012 62.6364 231.673 62.206C232.337 61.7713 233.113 61.554 233.999 61.554C234.511 61.554 235.016 61.6392 235.514 61.8097C236.013 61.9801 236.467 62.2571 236.876 62.6406C237.285 63.0199 237.611 63.5227 237.854 64.1491C238.097 64.7756 238.218 65.5469 238.218 66.4631V67.1023H230.65V65.7983H236.684C236.684 65.2443 236.573 64.75 236.352 64.3153C236.134 63.8807 235.823 63.5376 235.418 63.2862C235.018 63.0348 234.545 62.9091 233.999 62.9091C233.399 62.9091 232.879 63.0582 232.44 63.3565C232.005 63.6506 231.671 64.0341 231.436 64.5071C231.202 64.9801 231.085 65.4872 231.085 66.0284V66.8977C231.085 67.6392 231.212 68.2678 231.468 68.7834C231.728 69.2947 232.088 69.6847 232.548 69.9531C233.009 70.2173 233.543 70.3494 234.153 70.3494C234.549 70.3494 234.907 70.294 235.227 70.1832C235.551 70.0682 235.83 69.8977 236.064 69.6719C236.298 69.4418 236.479 69.1562 236.607 68.8153L238.065 69.2244C237.911 69.7188 237.653 70.1534 237.291 70.5284C236.929 70.8991 236.482 71.1889 235.949 71.3977C235.416 71.6023 234.818 71.7045 234.153 71.7045ZM240.153 61.6818H241.661V72.2159C241.661 72.821 241.557 73.3452 241.348 73.7884C241.144 74.2315 240.833 74.5746 240.415 74.8175C240.002 75.0604 239.48 75.1818 238.849 75.1818C238.798 75.1818 238.747 75.1818 238.695 75.1818C238.644 75.1818 238.593 75.1818 238.542 75.1818V73.7756C238.593 73.7756 238.64 73.7756 238.683 73.7756C238.725 73.7756 238.772 73.7756 238.823 73.7756C239.284 73.7756 239.62 73.6392 239.833 73.3665C240.046 73.098 240.153 72.7145 240.153 72.2159V61.6818ZM240.894 60.0455C240.6 60.0455 240.347 59.9453 240.134 59.745C239.925 59.5447 239.82 59.304 239.82 59.0227C239.82 58.7415 239.925 58.5007 240.134 58.3004C240.347 58.1001 240.6 58 240.894 58C241.188 58 241.44 58.1001 241.649 58.3004C241.862 58.5007 241.968 58.7415 241.968 59.0227C241.968 59.304 241.862 59.5447 241.649 59.745C241.44 59.9453 241.188 60.0455 240.894 60.0455ZM248.181 71.7045C247.235 71.7045 246.419 71.4957 245.733 71.0781C245.051 70.6562 244.525 70.0682 244.154 69.3139C243.787 68.5554 243.604 67.6733 243.604 66.6676C243.604 65.6619 243.787 64.7756 244.154 64.0085C244.525 63.2372 245.04 62.6364 245.701 62.206C246.365 61.7713 247.141 61.554 248.027 61.554C248.539 61.554 249.044 61.6392 249.542 61.8097C250.041 61.9801 250.495 62.2571 250.904 62.6406C251.313 63.0199 251.639 63.5227 251.882 64.1491C252.125 64.7756 252.246 65.5469 252.246 66.4631V67.1023H244.678V65.7983H250.712C250.712 65.2443 250.601 64.75 250.38 64.3153C250.162 63.8807 249.851 63.5376 249.446 63.2862C249.046 63.0348 248.573 62.9091 248.027 62.9091C247.427 62.9091 246.907 63.0582 246.468 63.3565C246.033 63.6506 245.699 64.0341 245.464 64.5071C245.23 64.9801 245.113 65.4872 245.113 66.0284V66.8977C245.113 67.6392 245.24 68.2678 245.496 68.7834C245.756 69.2947 246.116 69.6847 246.576 69.9531C247.037 70.2173 247.571 70.3494 248.181 70.3494C248.577 70.3494 248.935 70.294 249.255 70.1832C249.579 70.0682 249.858 69.8977 250.092 69.6719C250.326 69.4418 250.508 69.1562 250.635 68.8153L252.093 69.2244C251.939 69.7188 251.682 70.1534 251.319 70.5284C250.957 70.8991 250.51 71.1889 249.977 71.3977C249.444 71.6023 248.846 71.7045 248.181 71.7045ZM265.838 63.8807L264.483 64.2642C264.398 64.0384 264.272 63.8189 264.106 63.6058C263.944 63.3885 263.722 63.2095 263.441 63.0689C263.16 62.9283 262.8 62.858 262.361 62.858C261.76 62.858 261.259 62.9964 260.859 63.2734C260.462 63.5462 260.264 63.8935 260.264 64.3153C260.264 64.6903 260.4 64.9865 260.673 65.2038C260.946 65.4212 261.372 65.6023 261.952 65.7472L263.409 66.1051C264.287 66.3182 264.941 66.6442 265.371 67.0831C265.802 67.5178 266.017 68.0781 266.017 68.7642C266.017 69.3267 265.855 69.8295 265.531 70.2727C265.212 70.7159 264.764 71.0653 264.189 71.321C263.614 71.5767 262.945 71.7045 262.182 71.7045C261.18 71.7045 260.351 71.4872 259.695 71.0526C259.039 70.6179 258.623 69.983 258.449 69.1477L259.881 68.7898C260.017 69.3182 260.275 69.7145 260.654 69.9787C261.038 70.2429 261.538 70.375 262.156 70.375C262.859 70.375 263.418 70.2259 263.831 69.9276C264.248 69.625 264.457 69.2628 264.457 68.8409C264.457 68.5 264.338 68.2145 264.099 67.9844C263.861 67.75 263.494 67.5753 263 67.4602L261.364 67.0767C260.464 66.8636 259.804 66.5334 259.382 66.0859C258.964 65.6342 258.756 65.0696 258.756 64.392C258.756 63.8381 258.911 63.348 259.222 62.9219C259.538 62.4957 259.966 62.1612 260.507 61.9183C261.052 61.6754 261.67 61.554 262.361 61.554C263.332 61.554 264.095 61.767 264.649 62.1932C265.207 62.6193 265.604 63.1818 265.838 63.8807ZM274.115 67.4858V61.6818H275.624V71.5H274.115V69.8381H274.013C273.783 70.3366 273.425 70.7607 272.939 71.1101C272.453 71.4553 271.84 71.6278 271.098 71.6278C270.485 71.6278 269.939 71.4936 269.462 71.2251C268.985 70.9524 268.61 70.5433 268.337 69.9979C268.064 69.4482 267.928 68.7557 267.928 67.9205V61.6818H269.436V67.8182C269.436 68.5341 269.637 69.1051 270.037 69.5312C270.442 69.9574 270.958 70.1705 271.584 70.1705C271.959 70.1705 272.34 70.0746 272.728 69.8828C273.12 69.6911 273.448 69.397 273.713 69.0007C273.981 68.6044 274.115 68.0994 274.115 67.4858ZM280.916 71.7301C280.294 71.7301 279.729 71.6129 279.222 71.3786C278.715 71.1399 278.312 70.7969 278.014 70.3494C277.716 69.8977 277.566 69.3523 277.566 68.7131C277.566 68.1506 277.677 67.6946 277.899 67.3452C278.12 66.9915 278.417 66.7145 278.787 66.5142C279.158 66.3139 279.567 66.1648 280.015 66.0668C280.466 65.9645 280.92 65.8835 281.376 65.8239C281.973 65.7472 282.456 65.6896 282.827 65.6513C283.202 65.6087 283.475 65.5384 283.645 65.4403C283.82 65.3423 283.907 65.1719 283.907 64.929V64.8778C283.907 64.2472 283.735 63.7571 283.39 63.4077C283.049 63.0582 282.531 62.8835 281.836 62.8835C281.116 62.8835 280.552 63.0412 280.142 63.3565C279.733 63.6719 279.446 64.0085 279.28 64.3665L277.848 63.8551C278.103 63.2585 278.444 62.794 278.87 62.4616C279.301 62.125 279.77 61.8906 280.277 61.7585C280.788 61.6222 281.291 61.554 281.785 61.554C282.101 61.554 282.463 61.5923 282.872 61.669C283.285 61.7415 283.684 61.8928 284.067 62.1229C284.455 62.353 284.777 62.7003 285.032 63.1648C285.288 63.6293 285.416 64.2514 285.416 65.0312V71.5H283.907V70.1705H283.831C283.728 70.3835 283.558 70.6115 283.319 70.8544C283.081 71.0973 282.763 71.304 282.367 71.4744C281.971 71.6449 281.487 71.7301 280.916 71.7301ZM281.146 70.375C281.743 70.375 282.245 70.2578 282.655 70.0234C283.068 69.7891 283.379 69.4865 283.588 69.1158C283.801 68.745 283.907 68.3551 283.907 67.946V66.5653C283.843 66.642 283.703 66.7124 283.486 66.7763C283.272 66.8359 283.025 66.8892 282.744 66.9361C282.467 66.9787 282.196 67.017 281.932 67.0511C281.672 67.081 281.461 67.1065 281.299 67.1278C280.907 67.179 280.541 67.2621 280.2 67.3771C279.863 67.4879 279.591 67.6562 279.382 67.8821C279.177 68.1037 279.075 68.4062 279.075 68.7898C279.075 69.3139 279.269 69.7102 279.657 69.9787C280.049 70.2429 280.545 70.375 281.146 70.375ZM292.512 75.1818V61.6818H293.969V63.2415H294.148C294.259 63.071 294.412 62.8537 294.608 62.5895C294.809 62.321 295.094 62.0824 295.465 61.8736C295.84 61.6605 296.347 61.554 296.986 61.554C297.813 61.554 298.542 61.7607 299.172 62.174C299.803 62.5874 300.295 63.1733 300.649 63.9318C301.003 64.6903 301.179 65.5852 301.179 66.6165C301.179 67.6562 301.003 68.5575 300.649 69.3203C300.295 70.0788 299.805 70.6669 299.179 71.0845C298.552 71.4979 297.83 71.7045 297.012 71.7045C296.381 71.7045 295.876 71.6001 295.497 71.3913C295.118 71.1783 294.826 70.9375 294.621 70.669C294.417 70.3963 294.259 70.1705 294.148 69.9915H294.02V75.1818H292.512ZM293.995 66.5909C293.995 67.3324 294.103 67.9865 294.321 68.5533C294.538 69.1158 294.856 69.5568 295.273 69.8764C295.691 70.1918 296.202 70.3494 296.807 70.3494C297.438 70.3494 297.964 70.1832 298.386 69.8509C298.812 69.5142 299.132 69.0625 299.345 68.4957C299.562 67.9247 299.671 67.2898 299.671 66.5909C299.671 65.9006 299.564 65.2784 299.351 64.7244C299.142 64.1662 298.825 63.7251 298.399 63.4013C297.977 63.0732 297.446 62.9091 296.807 62.9091C296.194 62.9091 295.678 63.0646 295.26 63.3757C294.843 63.6825 294.527 64.1129 294.314 64.6669C294.101 65.2166 293.995 65.858 293.995 66.5909ZM303.121 71.5V61.6818H304.578V63.1648H304.68C304.859 62.679 305.183 62.2848 305.652 61.9822C306.121 61.6797 306.649 61.5284 307.237 61.5284C307.348 61.5284 307.486 61.5305 307.652 61.5348C307.819 61.5391 307.944 61.5455 308.03 61.554V63.0881C307.978 63.0753 307.861 63.0561 307.678 63.0305C307.499 63.0007 307.309 62.9858 307.109 62.9858C306.632 62.9858 306.206 63.0859 305.831 63.2862C305.46 63.4822 305.166 63.755 304.949 64.1044C304.736 64.4496 304.629 64.8437 304.629 65.2869V71.5H303.121ZM313.148 71.7045C312.261 71.7045 311.484 71.4936 310.815 71.0717C310.15 70.6499 309.63 70.0597 309.255 69.3011C308.884 68.5426 308.699 67.6562 308.699 66.642C308.699 65.6193 308.884 64.7266 309.255 63.9638C309.63 63.201 310.15 62.6087 310.815 62.1868C311.484 61.7649 312.261 61.554 313.148 61.554C314.034 61.554 314.81 61.7649 315.474 62.1868C316.143 62.6087 316.663 63.201 317.034 63.9638C317.409 64.7266 317.596 65.6193 317.596 66.642C317.596 67.6562 317.409 68.5426 317.034 69.3011C316.663 70.0597 316.143 70.6499 315.474 71.0717C314.81 71.4936 314.034 71.7045 313.148 71.7045ZM313.148 70.3494C313.821 70.3494 314.375 70.1768 314.81 69.8317C315.244 69.4865 315.566 69.0327 315.775 68.4702C315.984 67.9077 316.088 67.2983 316.088 66.642C316.088 65.9858 315.984 65.3743 315.775 64.8075C315.566 64.2408 315.244 63.7827 314.81 63.4332C314.375 63.0838 313.821 62.9091 313.148 62.9091C312.474 62.9091 311.92 63.0838 311.486 63.4332C311.051 63.7827 310.729 64.2408 310.52 64.8075C310.312 65.3743 310.207 65.9858 310.207 66.642C310.207 67.2983 310.312 67.9077 310.52 68.4702C310.729 69.0327 311.051 69.4865 311.486 69.8317C311.92 70.1768 312.474 70.3494 313.148 70.3494ZM312.457 60.3523L314.017 57.3864H315.781L313.787 60.3523H312.457ZM320.26 61.6818L322.612 65.696L324.964 61.6818H326.703L323.533 66.5909L326.703 71.5H324.964L322.612 67.6903L320.26 71.5H318.521L321.641 66.5909L318.521 61.6818H320.26ZM328.496 71.5V61.6818H330.004V71.5H328.496ZM329.263 60.0455C328.969 60.0455 328.715 59.9453 328.502 59.745C328.293 59.5447 328.189 59.304 328.189 59.0227C328.189 58.7415 328.293 58.5007 328.502 58.3004C328.715 58.1001 328.969 58 329.263 58C329.557 58 329.808 58.1001 330.017 58.3004C330.23 58.5007 330.337 58.7415 330.337 59.0227C330.337 59.304 330.23 59.5447 330.017 59.745C329.808 59.9453 329.557 60.0455 329.263 60.0455ZM332.407 71.5V61.6818H333.864V63.2159H333.992C334.197 62.6918 334.527 62.2848 334.983 61.995C335.439 61.701 335.987 61.554 336.626 61.554C337.274 61.554 337.813 61.701 338.243 61.995C338.678 62.2848 339.016 62.6918 339.259 63.2159H339.362C339.613 62.7088 339.99 62.3061 340.493 62.0078C340.996 61.7053 341.599 61.554 342.302 61.554C343.18 61.554 343.898 61.8288 344.456 62.3786C345.014 62.924 345.293 63.7741 345.293 64.929V71.5H343.785V64.929C343.785 64.2045 343.587 63.6868 343.19 63.3757C342.794 63.0646 342.328 62.9091 341.791 62.9091C341.1 62.9091 340.565 63.1179 340.186 63.5355C339.807 63.9489 339.617 64.473 339.617 65.108V71.5H338.083V64.7756C338.083 64.2173 337.902 63.7678 337.54 63.4268C337.178 63.0817 336.711 62.9091 336.14 62.9091C335.748 62.9091 335.382 63.0135 335.041 63.2223C334.704 63.4311 334.431 63.7209 334.222 64.0916C334.018 64.4581 333.916 64.8821 333.916 65.3636V71.5H332.407ZM350.581 71.7301C349.959 71.7301 349.394 71.6129 348.887 71.3786C348.38 71.1399 347.977 70.7969 347.679 70.3494C347.381 69.8977 347.231 69.3523 347.231 68.7131C347.231 68.1506 347.342 67.6946 347.564 67.3452C347.785 66.9915 348.082 66.7145 348.452 66.5142C348.823 66.3139 349.232 66.1648 349.68 66.0668C350.131 65.9645 350.585 65.8835 351.041 65.8239C351.638 65.7472 352.121 65.6896 352.492 65.6513C352.867 65.6087 353.14 65.5384 353.31 65.4403C353.485 65.3423 353.572 65.1719 353.572 64.929V64.8778C353.572 64.2472 353.4 63.7571 353.055 63.4077C352.714 63.0582 352.196 62.8835 351.501 62.8835C350.781 62.8835 350.216 63.0412 349.807 63.3565C349.398 63.6719 349.111 64.0085 348.944 64.3665L347.513 63.8551C347.768 63.2585 348.109 62.794 348.535 62.4616C348.966 62.125 349.435 61.8906 349.942 61.7585C350.453 61.6222 350.956 61.554 351.45 61.554C351.765 61.554 352.128 61.5923 352.537 61.669C352.95 61.7415 353.349 61.8928 353.732 62.1229C354.12 62.353 354.442 62.7003 354.697 63.1648C354.953 63.6293 355.081 64.2514 355.081 65.0312V71.5H353.572V70.1705H353.496C353.393 70.3835 353.223 70.6115 352.984 70.8544C352.746 71.0973 352.428 71.304 352.032 71.4744C351.636 71.6449 351.152 71.7301 350.581 71.7301ZM350.811 70.375C351.408 70.375 351.91 70.2578 352.319 70.0234C352.733 69.7891 353.044 69.4865 353.253 69.1158C353.466 68.745 353.572 68.3551 353.572 67.946V66.5653C353.508 66.642 353.368 66.7124 353.15 66.7763C352.937 66.8359 352.69 66.8892 352.409 66.9361C352.132 66.9787 351.861 67.017 351.597 67.0511C351.337 67.081 351.126 67.1065 350.964 67.1278C350.572 67.179 350.206 67.2621 349.865 67.3771C349.528 67.4879 349.256 67.6562 349.047 67.8821C348.842 68.1037 348.74 68.4062 348.74 68.7898C348.74 69.3139 348.934 69.7102 349.322 69.9787C349.714 70.2429 350.21 70.375 350.811 70.375ZM370.205 61.6818L366.574 71.5H365.04L361.41 61.6818H363.046L365.756 69.5057H365.859L368.569 61.6818H370.205ZM371.836 71.5V61.6818H373.345V71.5H371.836ZM372.603 60.0455C372.309 60.0455 372.056 59.9453 371.843 59.745C371.634 59.5447 371.529 59.304 371.529 59.0227C371.529 58.7415 371.634 58.5007 371.843 58.3004C372.056 58.1001 372.309 58 372.603 58C372.897 58 373.149 58.1001 373.358 58.3004C373.571 58.5007 373.677 58.7415 373.677 59.0227C373.677 59.304 373.571 59.5447 373.358 59.745C373.149 59.9453 372.897 60.0455 372.603 60.0455ZM378.637 71.7301C378.015 71.7301 377.45 71.6129 376.943 71.3786C376.436 71.1399 376.033 70.7969 375.735 70.3494C375.437 69.8977 375.287 69.3523 375.287 68.7131C375.287 68.1506 375.398 67.6946 375.62 67.3452C375.841 66.9915 376.138 66.7145 376.508 66.5142C376.879 66.3139 377.288 66.1648 377.736 66.0668C378.187 65.9645 378.641 65.8835 379.097 65.8239C379.694 65.7472 380.177 65.6896 380.548 65.6513C380.923 65.6087 381.196 65.5384 381.366 65.4403C381.541 65.3423 381.628 65.1719 381.628 64.929V64.8778C381.628 64.2472 381.456 63.7571 381.111 63.4077C380.77 63.0582 380.252 62.8835 379.557 62.8835C378.837 62.8835 378.273 63.0412 377.863 63.3565C377.454 63.6719 377.167 64.0085 377.001 64.3665L375.569 63.8551C375.824 63.2585 376.165 62.794 376.591 62.4616C377.022 62.125 377.491 61.8906 377.998 61.7585C378.509 61.6222 379.012 61.554 379.506 61.554C379.822 61.554 380.184 61.5923 380.593 61.669C381.006 61.7415 381.405 61.8928 381.788 62.1229C382.176 62.353 382.498 62.7003 382.753 63.1648C383.009 63.6293 383.137 64.2514 383.137 65.0312V71.5H381.628V70.1705H381.552C381.449 70.3835 381.279 70.6115 381.04 70.8544C380.802 71.0973 380.484 71.304 380.088 71.4744C379.692 71.6449 379.208 71.7301 378.637 71.7301ZM378.867 70.375C379.464 70.375 379.966 70.2578 380.376 70.0234C380.789 69.7891 381.1 69.4865 381.309 69.1158C381.522 68.745 381.628 68.3551 381.628 67.946V66.5653C381.564 66.642 381.424 66.7124 381.207 66.7763C380.993 66.8359 380.746 66.8892 380.465 66.9361C380.188 66.9787 379.917 67.017 379.653 67.0511C379.393 67.081 379.182 67.1065 379.02 67.1278C378.628 67.179 378.262 67.2621 377.921 67.3771C377.584 67.4879 377.312 67.6562 377.103 67.8821C376.898 68.1037 376.796 68.4062 376.796 68.7898C376.796 69.3139 376.99 69.7102 377.378 69.9787C377.77 70.2429 378.266 70.375 378.867 70.375ZM389.493 75.3864C388.765 75.3864 388.138 75.2926 387.614 75.1051C387.09 74.9219 386.653 74.679 386.304 74.3764C385.959 74.0781 385.684 73.7585 385.479 73.4176L386.681 72.5739C386.817 72.7528 386.99 72.9574 387.199 73.1875C387.407 73.4219 387.693 73.6243 388.055 73.7947C388.422 73.9695 388.901 74.0568 389.493 74.0568C390.286 74.0568 390.94 73.8651 391.456 73.4815C391.971 73.098 392.229 72.4972 392.229 71.679V69.6847H392.101C391.991 69.8636 391.833 70.0852 391.628 70.3494C391.428 70.6094 391.138 70.8416 390.759 71.0462C390.384 71.2464 389.877 71.3466 389.238 71.3466C388.445 71.3466 387.733 71.1591 387.103 70.7841C386.476 70.4091 385.98 69.8636 385.613 69.1477C385.251 68.4318 385.07 67.5625 385.07 66.5398C385.07 65.5341 385.247 64.6584 385.601 63.9126C385.954 63.1626 386.446 62.5831 387.077 62.174C387.708 61.7607 388.437 61.554 389.263 61.554C389.902 61.554 390.41 61.6605 390.785 61.8736C391.164 62.0824 391.454 62.321 391.654 62.5895C391.858 62.8537 392.016 63.071 392.127 63.2415H392.28V61.6818H393.738V71.7812C393.738 72.625 393.546 73.3111 393.162 73.8395C392.783 74.3722 392.272 74.7621 391.628 75.0092C390.989 75.2607 390.277 75.3864 389.493 75.3864ZM389.442 69.9915C390.047 69.9915 390.559 69.853 390.976 69.576C391.394 69.299 391.711 68.9006 391.929 68.3807C392.146 67.8608 392.255 67.2386 392.255 66.5142C392.255 65.8068 392.148 65.1825 391.935 64.6413C391.722 64.1001 391.407 63.6761 390.989 63.3693C390.571 63.0625 390.056 62.9091 389.442 62.9091C388.803 62.9091 388.27 63.071 387.844 63.3949C387.422 63.7187 387.105 64.1534 386.892 64.6989C386.683 65.2443 386.579 65.8494 386.579 66.5142C386.579 67.196 386.685 67.799 386.898 68.3232C387.116 68.843 387.435 69.2521 387.857 69.5504C388.283 69.8445 388.812 69.9915 389.442 69.9915ZM400.256 71.7045C399.309 71.7045 398.493 71.4957 397.807 71.0781C397.126 70.6562 396.599 70.0682 396.229 69.3139C395.862 68.5554 395.679 67.6733 395.679 66.6676C395.679 65.6619 395.862 64.7756 396.229 64.0085C396.599 63.2372 397.115 62.6364 397.775 62.206C398.44 61.7713 399.216 61.554 400.102 61.554C400.613 61.554 401.118 61.6392 401.617 61.8097C402.116 61.9801 402.569 62.2571 402.979 62.6406C403.388 63.0199 403.714 63.5227 403.957 64.1491C404.199 64.7756 404.321 65.5469 404.321 66.4631V67.1023H396.753V65.7983H402.787C402.787 65.2443 402.676 64.75 402.454 64.3153C402.237 63.8807 401.926 63.5376 401.521 63.2862C401.121 63.0348 400.648 62.9091 400.102 62.9091C399.501 62.9091 398.981 63.0582 398.542 63.3565C398.108 63.6506 397.773 64.0341 397.539 64.5071C397.305 64.9801 397.187 65.4872 397.187 66.0284V66.8977C397.187 67.6392 397.315 68.2678 397.571 68.7834C397.831 69.2947 398.191 69.6847 398.651 69.9531C399.111 70.2173 399.646 70.3494 400.256 70.3494C400.652 70.3494 401.01 70.294 401.329 70.1832C401.653 70.0682 401.932 69.8977 402.167 69.6719C402.401 69.4418 402.582 69.1562 402.71 68.8153L404.167 69.2244C404.014 69.7188 403.756 70.1534 403.394 70.5284C403.032 70.8991 402.584 71.1889 402.052 71.3977C401.519 71.6023 400.92 71.7045 400.256 71.7045ZM406.256 71.5V61.6818H407.713V63.2159H407.841C408.045 62.6918 408.376 62.2848 408.832 61.995C409.288 61.701 409.835 61.554 410.474 61.554C411.122 61.554 411.661 61.701 412.092 61.995C412.526 62.2848 412.865 62.6918 413.108 63.2159H413.21C413.462 62.7088 413.839 62.3061 414.342 62.0078C414.844 61.7053 415.447 61.554 416.15 61.554C417.028 61.554 417.746 61.8288 418.305 62.3786C418.863 62.924 419.142 63.7741 419.142 64.929V71.5H417.633V64.929C417.633 64.2045 417.435 63.6868 417.039 63.3757C416.643 63.0646 416.176 62.9091 415.639 62.9091C414.949 62.9091 414.414 63.1179 414.035 63.5355C413.655 63.9489 413.466 64.473 413.466 65.108V71.5H411.932V64.7756C411.932 64.2173 411.751 63.7678 411.388 63.4268C411.026 63.0817 410.56 62.9091 409.989 62.9091C409.596 62.9091 409.23 63.0135 408.889 63.2223C408.552 63.4311 408.28 63.7209 408.071 64.0916C407.866 64.4581 407.764 64.8821 407.764 65.3636V71.5H406.256ZM423.534 58.4091L423.407 67.8182H421.924L421.796 58.4091H423.534ZM422.665 71.6023C422.35 71.6023 422.079 71.4893 421.853 71.2635C421.627 71.0376 421.515 70.767 421.515 70.4517C421.515 70.1364 421.627 69.8658 421.853 69.6399C422.079 69.4141 422.35 69.3011 422.665 69.3011C422.98 69.3011 423.251 69.4141 423.477 69.6399C423.703 69.8658 423.816 70.1364 423.816 70.4517C423.816 70.6605 423.762 70.8523 423.656 71.027C423.554 71.2017 423.415 71.3423 423.24 71.4489C423.07 71.5511 422.878 71.6023 422.665 71.6023Z" fill="#D4D4D8"/>
</svg>
